# xmcd CD database file
#
# Track frame offsets:
#	182
#	14375
#	44282
#	84215
#	127867
#	160732
#	185495
#	215252
#	240245
#	277935
#
# Disc length: 3938 seconds
#
# Revision: 0
# Processed by: cddbd v1.5.2PL0 Copyright (c) Steve Scherf et al.
# Submitted via: CDex 1.70beta2
#
DISCID=6f0f600a
DTITLE=Thelonious Monk - Évidence
DYEAR=1992
DGENRE=Jazz
TTITLE0=Hackensack
TTITLE1=Light Blue
TTITLE2=Evidence
TTITLE3='Round Midnight
TTITLE4=Misterioso
TTITLE5=Introspection
TTITLE6=Ugly Beauty
TTITLE7=Criss-Cross
TTITLE8=Well You Needn't
TTITLE9=Boo Boo's Birthday
EXTD=YEAR: 1992
EXTT0=
EXTT1=
EXTT2=
EXTT3=
EXTT4=
EXTT5=
EXTT6=
EXTT7=
EXTT8=
EXTT9=
PLAYORDER=
